<svg width="37" height="49" viewBox="0 0 37 49" fill="none" xmlns="http://www.w3.org/2000/svg">
<g clip-path="url(#clip0_49_15)">
<path fill-rule="evenodd" clip-rule="evenodd" d="M6.38557 0.5H22.4335L36.0347 14.6769V42.2511C36.0347 45.7054 33.2401 48.5 29.7978 48.5H6.38557C2.93131 48.5 0.136719 45.7054 0.136719 42.2511V6.74885C0.136658 3.29459 2.93125 0.5 6.38557 0.5Z" fill="#D72429"/>
<path opacity="0.302" fill-rule="evenodd" clip-rule="evenodd" d="M22.4219 0.5V14.569H36.0351L22.4219 0.5Z" fill="white"/>
<path d="M7.08105 36.3141V27.5464H10.8112C11.7347 27.5464 12.4664 27.7983 13.0181 28.3141C13.5698 28.8178 13.8457 29.5015 13.8457 30.353C13.8457 31.2046 13.5698 31.8883 13.0181 32.392C12.4664 32.9078 11.7347 33.1596 10.8112 33.1596H9.32393V36.3141H7.08105ZM9.32393 31.2526H10.5593C10.8951 31.2526 11.159 31.1806 11.339 31.0128C11.5188 30.8569 11.6148 30.6409 11.6148 30.3531C11.6148 30.0653 11.5189 29.8494 11.339 29.6934C11.1591 29.5255 10.8952 29.4536 10.5593 29.4536H9.32393V31.2526ZM14.7692 36.3141V27.5464H17.8756C18.4873 27.5464 19.0631 27.6304 19.6028 27.8103C20.1425 27.9902 20.6343 28.2421 21.066 28.59C21.4978 28.9258 21.8457 29.3815 22.0975 29.9573C22.3374 30.533 22.4694 31.1927 22.4694 31.9363C22.4694 32.6679 22.3375 33.3276 22.0975 33.9033C21.8457 34.479 21.4978 34.9348 21.066 35.2706C20.6342 35.6184 20.1425 35.8702 19.6028 36.0502C19.0631 36.2301 18.4873 36.3141 17.8756 36.3141H14.7692ZM16.9641 34.4071H17.6118C17.9596 34.4071 18.2834 34.3711 18.5833 34.2871C18.8711 34.2032 19.147 34.0712 19.4109 33.8913C19.6628 33.7114 19.8667 33.4595 20.0106 33.1237C20.1545 32.7879 20.2265 32.392 20.2265 31.9363C20.2265 31.4685 20.1545 31.0727 20.0106 30.7369C19.8667 30.4011 19.6628 30.1492 19.4109 29.9693C19.147 29.7894 18.8712 29.6574 18.5833 29.5735C18.2834 29.4895 17.9596 29.4535 17.6118 29.4535H16.9641V34.4071ZM23.5968 36.3141V27.5464H29.8337V29.4535H25.8397V30.8568H29.0301V32.7519H25.8397V36.3141H23.5968Z" fill="white"/>
</g>
<defs>
<clipPath id="clip0_49_15">
<rect width="36" height="48" fill="white" transform="translate(0.0859375 0.5)"/>
</clipPath>
</defs>
</svg>
